PathFileType	4	(X/Y/Z)	Walk3.trc
DataRate	CameraRate	NumFrames	NumMarkers	Units	OrigDataRate	OrigDataStartFrame	OrigNumFrames
200.000000	200.000000	7	59	mm	200.000000	498	578
Frame#	Times		CLAV		STRN		RASI		RACR1		RUA1		RElbow		RFA1		RWRU		LACR1		LUA1		LFA1		LCAR		RTH1		RTH3		RTH2		LTH3		LLFC		LTB1		LTB3		LTB4		LToe		LTH2		RFHD		LTH4		LFHD		LTB2		RBack		RTH4		LMT1		RCAR		RWRR		C7		RPSI		LMT5		LTH1		T10		LMMAL		RLFC		RTB1		LPSI		LLMAL		RBHD		LElbow		LBHD		RTB2		RTB4		RToe		RElbowM		LWRU		RTB3		LWRR		RMT1		RLMAL		RMMAL		LASI		RMT5		RCAL		LElbowM		LCAL
			X1	Y1	Z1	X2	Y2	Z2	X3	Y3	Z3	X4	Y4	Z4	X5	Y5	Z5	X6	Y6	Z6	X7	Y7	Z7	X8	Y8	Z8	X9	Y9	Z9	X10	Y10	Z10	X11	Y11	Z11	X12	Y12	Z12	X13	Y13	Z13	X14	Y14	Z14	X15	Y15	Z15	X16	Y16	Z16	X17	Y17	Z17	X18	Y18	Z18	X19	Y19	Z19	X20	Y20	Z20	X21	Y21	Z21	X22	Y22	Z22	X23	Y23	Z23	X24	Y24	Z24	X25	Y25	Z25	X26	Y26	Z26	X27	Y27	Z27	X28	Y28	Z28	X29	Y29	Z29	X30	Y30	Z30	X31	Y31	Z31	X32	Y32	Z32	X33	Y33	Z33	X34	Y34	Z34	X35	Y35	Z35	X36	Y36	Z36	X37	Y37	Z37	X38	Y38	Z38	X39	Y39	Z39	X40	Y40	Z40	X41	Y41	Z41	X42	Y42	Z42	X43	Y43	Z43	X44	Y44	Z44	X45	Y45	Z45	X46	Y46	Z46	X47	Y47	Z47	X48	Y48	Z48	X49	Y49	Z49	X50	Y50	Z50	X51	Y51	Z51	X52	Y52	Z52	X53	Y53	Z53	X54	Y54	Z54	X55	Y55	Z55	X56	Y56	Z56	X57	Y57	Z57	X58	Y58	Z58	X59	Y59	Z59

498	2.49	645.6	1332.2	-12.749	724.64	1109.4	-4.3877	677.86	930.4	139.6	602.99	1349.3	161.8	594.4	1140.8	231.2	579.84	1033.9	259.91	674.56	909.59	254.88	677.13	796.47	262.88	573.43	1338.3	-179.04	518.05	1133.9	-212.59	489.34	894.16	-235.71	456.72	734.34	-242.23	581.76	726.07	183.91	574.75	539.48	152.49	641.12	639.3	132.7	674.69	563.94	-125.9	698.96	457.94	-114.24	739.34	362.95	-34.957	734.58	175.49	-33.404	738.81	267.42	-38.083	890.53	29.64	-69.942	711.35	672.64	-116.91	691.02	1578.1	28.159	644.1	646.34	-144.83	683.43	1574.7	-44.407	712.79	269.34	-104.63	481.75	1306.4	99.848	577.72	632.35	166.26	848.09	37.64	-42.304	734.01	773.95	257.91	723.41	820.14	210.09	519.49	1408.7	-3.4173	461.9	964.33	76.891	805.15	21.231	-117.87	613.2	736.58	-162.92	489.12	1124.3	9.9904	716.22	74.004	2.2054	551.31	443.88	138.72	496.72	327.05	77.561	461.55	963.36	-38.988	697.77	60.785	-77.379	520.86	1539.3	67.299	475.92	1021.5	-213.11	513.79	1544.3	-60.197	415.14	291.27	150.47	421.29	273.01	81.712	328.02	25.769	105.53	562.65	1008.7	179.01	422.69	789.49	-241.31	346.97	218.27	85.224	481.52	772.56	-201.79	302.24	45.052	74.481	238.9	180.18	137	265.38	175.09	60.772	680.29	931.89	-120.35	260.81	50.418	151.02	189.92	195.56	90.148	470.92	1011.2	-142.85	651.42	28.188	-22.063
499	2.495	651.03	1332.9	-13.515	729.99	1110.2	-5.1019	683.49	931.45	138.49	608.28	1350.1	160.94	598.91	1141.6	230.31	583.64	1034.7	258.87	677.6	909.8	254.47	679.25	796.68	262.74	579.19	1339	-179.92	524.36	1134.5	-213.56	496.36	894.63	-236.36	464.17	734.72	-242.75	588.68	726.56	183.08	584.14	539.78	152.2	649.35	640.37	132.42	678.44	563.94	-126.16	702.25	457.87	-114.41	741.93	362.61	-35.005	735.63	175.19	-33.297	740.63	267.09	-38.055	890.82	29.553	-69.981	715.74	672.46	-117.58	696.43	1578.8	27.337	648.27	646.45	-145.24	688.87	1575.5	-45.232	714.6	269.13	-104.63	487.09	1307.1	98.958	585.87	632.71	165.68	848.1	37.582	-42.105	735.97	773.59	257.95	725.97	819.83	210.04	524.91	1409.4	-4.3848	467.02	964.85	75.994	805.13	21.341	-117.79	617.84	736.8	-163.54	494.44	1125	9.0772	716.37	73.886	2.3924	561.84	444.42	138.7	506.85	328.15	77.787	466.87	964.06	-39.898	697.9	60.825	-77.217	526.26	1540	66.394	482.48	1022	-214.14	519.24	1544.9	-61.124	424.84	293.48	150.82	430.78	274.95	82.089	330.89	26.203	105.79	566.93	1009.8	177.78	429.99	789.8	-242.19	355.86	221.03	85.74	488.66	773.12	-202.3	306.7	46.834	75.085	247.29	184.38	137.69	273.86	178.83	61.473	685.71	932.59	-120.95	265.46	53.652	150.87	198.74	201.1	90.78	477.03	1011.9	-143.89	651.43	28.178	-21.985
500	2.5	656.42	1333.6	-14.256	735.29	1110.9	-5.7934	689.05	932.54	137.49	613.53	1350.9	160.11	603.37	1142.3	229.46	587.41	1035.5	257.87	680.61	909.98	254.08	681.35	796.88	262.62	584.92	1339.8	-180.77	530.67	1135.1	-214.53	503.47	895.08	-237.01	471.78	735.08	-243.26	595.57	727.12	182.3	593.48	540.18	151.91	657.54	641.52	132.19	682.12	563.93	-126.44	705.42	457.79	-114.59	744.45	362.26	-35.082	736.64	174.9	-33.219	742.38	266.75	-38.056	891.09	29.485	-70.053	720.05	672.27	-118.19	701.83	1579.5	26.556	652.37	646.56	-145.64	694.31	1576.1	-46.015	716.32	268.92	-104.66	492.38	1307.8	98.059	593.97	633.18	165.12	848.1	37.55	-41.942	737.9	773.21	257.99	728.47	819.51	209.99	530.29	1410.1	-5.3285	472.12	965.37	75.098	805.11	21.434	-117.72	622.41	737.03	-164.12	499.71	1125.7	8.1688	716.51	73.781	2.5552	572.37	445.07	138.67	517.06	329.34	77.95	472.14	964.76	-40.796	698.02	60.857	-77.078	531.64	1540.6	65.526	489.07	1022.5	-215.18	524.68	1545.6	-62.019	434.66	295.66	151.09	440.39	276.92	82.371	334.49	26.807	106.13	571.19	1010.9	176.59	437.44	790.08	-243.1	364.93	223.76	86.14	495.94	773.67	-202.8	311.81	48.75	75.71	255.89	188.45	138.24	282.56	182.47	62.028	691.05	933.27	-121.55	270.68	56.974	150.73	207.73	206.34	91.266	483.15	1012.5	-144.95	651.44	28.166	-21.91
501	2.505	661.78	1334.3	-14.975	740.56	1111.7	-6.4638	694.54	933.64	136.59	618.71	1351.7	159.31	607.77	1143	228.65	591.16	1036.3	256.89	683.57	910.14	253.71	683.43	797.06	262.51	590.62	1340.5	-181.6	537	1135.7	-215.49	510.68	895.51	-237.67	479.56	735.41	-243.78	602.41	727.76	181.56	602.76	540.7	151.64	665.7	642.75	132.02	685.74	563.91	-126.73	708.49	457.69	-114.77	746.89	361.9	-35.185	737.6	174.61	-33.166	744.07	266.41	-38.083	891.33	29.428	-70.152	724.28	672.07	-118.75	707.23	1580.2	25.819	656.41	646.67	-146.04	699.75	1576.8	-46.756	717.98	268.7	-104.71	497.61	1308.6	97.152	602.01	633.74	164.59	848.1	37.537	-41.813	739.79	772.82	258.02	730.93	819.16	209.94	535.65	1410.8	-6.2478	477.2	965.92	74.21	805.1	21.511	-117.65	626.92	737.26	-164.68	504.94	1126.4	7.267	716.63	73.688	2.6943	582.88	445.82	138.62	527.32	330.62	78.049	477.37	965.45	-41.676	698.11	60.88	-76.96	537.02	1541.3	64.695	495.7	1023	-216.24	530.12	1546.3	-62.883	444.58	297.82	151.28	450.11	278.9	82.557	338.88	27.606	106.55	575.44	1011.9	175.43	445.03	790.3	-244.02	374.16	226.47	86.42	503.34	774.21	-203.29	317.61	50.788	76.35	264.69	192.38	138.66	291.45	185.98	62.436	696.31	933.92	-122.16	276.5	60.346	150.58	216.87	211.23	91.596	489.28	1013.1	-146.04	651.45	28.154	-21.841
502	2.51	667.1	1335	-15.672	745.79	1112.4	-7.1148	699.94	934.76	135.79	623.85	1352.4	158.55	612.11	1143.7	227.87	594.9	1037	255.94	686.5	910.27	253.37	685.48	797.22	262.4	596.28	1341.3	-182.4	543.33	1136.3	-216.45	517.97	895.93	-238.32	487.5	735.71	-244.29	609.19	728.46	180.86	611.95	541.31	151.38	673.79	644.07	131.9	689.3	563.91	-127.04	711.47	457.57	-114.97	749.26	361.54	-35.313	738.53	174.33	-33.135	745.7	266.07	-38.132	891.54	29.378	-70.271	728.43	671.87	-119.26	712.64	1580.8	25.123	660.4	646.78	-146.43	705.19	1577.5	-47.455	719.59	268.47	-104.79	502.79	1309.3	96.238	609.98	634.41	164.1	848.09	37.538	-41.715	741.63	772.41	258.04	733.34	818.79	209.89	540.98	1411.5	-7.1419	482.26	966.48	73.336	805.09	21.574	-117.6	631.38	737.51	-165.22	510.14	1127.1	6.3726	716.74	73.606	2.8101	593.35	446.68	138.56	537.62	331.97	78.083	482.56	966.15	-42.533	698.19	60.894	-76.862	542.39	1541.9	63.902	502.38	1023.4	-217.32	535.55	1547	-63.719	454.57	299.96	151.38	459.93	280.91	82.647	344.13	28.614	107.04	579.67	1012.8	174.32	452.77	790.49	-244.96	383.53	229.12	86.582	510.88	774.72	-203.78	324.14	52.936	77.001	273.68	196.15	138.93	300.53	189.36	62.694	701.49	934.54	-122.78	282.96	63.73	150.46	226.14	215.76	91.763	495.42	1013.7	-147.15	651.45	28.142	-21.779
503	2.515	672.39	1335.7	-16.35	750.98	1113	-7.7482	705.26	935.87	135.09	628.95	1353.1	157.83	616.4	1144.4	227.13	598.63	1037.7	255.03	689.4	910.38	253.04	687.51	797.37	262.31	601.91	1342.1	-183.17	549.67	1136.8	-217.41	525.35	896.33	-238.97	495.61	736	-244.81	615.91	729.24	180.21	621.04	542.03	151.13	681.82	645.46	131.84	692.8	563.9	-127.37	714.36	457.43	-115.18	751.56	361.18	-35.461	739.42	174.05	-33.12	747.27	265.73	-38.2	891.74	29.33	-70.405	732.52	671.66	-119.74	718.04	1581.4	24.469	664.33	646.9	-146.83	710.63	1578.2	-48.113	721.15	268.24	-104.88	507.92	1310	95.321	617.86	635.18	163.64	848.07	37.549	-41.644	743.44	771.99	258.06	735.71	818.41	209.84	546.29	1412.2	-8.0102	487.31	967.06	72.48	805.09	21.624	-117.55	635.79	737.75	-165.73	515.29	1127.8	5.486	716.83	73.534	2.9032	603.77	447.65	138.47	547.94	333.4	78.052	487.71	966.84	-43.362	698.24	60.9	-76.781	547.75	1542.6	63.145	509.08	1023.9	-218.42	540.97	1547.7	-64.527	464.62	302.07	151.38	469.81	282.92	82.644	350.29	29.838	107.61	583.87	1013.6	173.24	460.66	790.63	-245.92	393.02	231.72	86.626	518.55	775.23	-204.26	331.42	55.173	77.656	282.83	199.74	139.05	309.79	192.59	62.801	706.59	935.14	-123.4	290.09	67.087	150.36	235.52	219.9	91.765	501.56	1014.2	-148.28	651.45	28.132	-21.723
504	2.52	677.64	1336.3	-17.009	756.15	1113.6	-8.3658	710.48	936.97	134.48	633.99	1353.8	157.14	620.63	1145.1	226.42	602.36	1038.4	254.14	692.27	910.46	252.74	689.51	797.51	262.22	607.5	1342.8	-183.92	556.02	1137.4	-218.35	532.82	896.72	-239.62	503.88	736.27	-245.32	622.56	730.07	179.6	630.01	542.85	150.88	689.77	646.92	131.85	696.26	563.9	-127.7	717.17	457.28	-115.4	753.79	360.81	-35.624	740.27	173.78	-33.118	748.79	265.4	-38.282	891.91	29.283	-70.548	736.54	671.45	-120.17	723.44	1582.1	23.856	668.22	647.02	-147.21	716.07	1578.8	-48.73	722.67	268	-105	513.01	1310.7	94.403	625.65	636.04	163.23	848.05	37.565	-41.597	745.22	771.55	258.07	738.03	818.01	209.78	551.57	1412.9	-8.8522	492.36	967.66	71.648	805.09	21.663	-117.51	640.16	738.01	-166.23	520.41	1128.5	4.6075	716.92	73.47	2.9744	614.12	448.73	138.36	558.28	334.89	77.957	492.82	967.53	-44.158	698.29	60.897	-76.716	553.11	1543.3	62.425	515.82	1024.3	-219.53	546.38	1548.5	-65.31	474.71	304.16	151.3	479.77	284.93	82.549	357.4	31.271	108.23	588.04	1014.4	172.2	468.68	790.74	-246.89	402.64	234.24	86.555	526.33	775.72	-204.73	339.44	57.474	78.312	292.14	203.13	139.02	319.21	195.66	62.758	711.62	935.7	-124.05	297.89	70.383	150.3	245.01	223.63	91.6	507.72	1014.8	-149.44	651.45	28.124	-21.675
